<?xml version="1.0" encoding="UTF-8" standalone="no"?>
<!-- Created with Inkscape (http://www.inkscape.org/) -->

<svg
   width="148.62mm"
   height="134.875mm"
   viewBox="0 0 148.62 134.875"
   version="1.1"
   id="svg5"
   xml:space="preserve"
   inkscape:version="1.2.2 (b0a8486541, 2022-12-01)"
   sodipodi:docname="desenho.svg"
   xmlns:inkscape="http://www.inkscape.org/namespaces/inkscape"
   xmlns:sodipodi="http://sodipodi.sourceforge.net/DTD/sodipodi-0.dtd"
   xmlns="http://www.w3.org/2000/svg"
   xmlns:svg="http://www.w3.org/2000/svg"><sodipodi:namedview
     id="namedview7"
     pagecolor="#ffffff"
     bordercolor="#000000"
     borderopacity="0.25"
     inkscape:showpageshadow="2"
     inkscape:pageopacity="0.0"
     inkscape:pagecheckerboard="0"
     inkscape:deskcolor="#d1d1d1"
     inkscape:document-units="mm"
     showgrid="false"
     inkscape:zoom="0.70710678"
     inkscape:cx="230.51681"
     inkscape:cy="363.45288"
     inkscape:window-width="1600"
     inkscape:window-height="823"
     inkscape:window-x="0"
     inkscape:window-y="0"
     inkscape:window-maximized="1"
     inkscape:current-layer="layer1" /><defs
     id="defs2" /><g
     inkscape:label="Camada 1"
     inkscape:groupmode="layer"
     id="layer1"><path
       style="fill:#ffffff;stroke-width:0.136131"
       d="m 59.965306,134.78091 c -1.950924,-0.30123 -4.471802,-1.33638 -6.1259,-2.5155 -1.042999,-0.74349 -2.711127,-2.47196 -3.464764,-3.5901 -1.828488,-2.71284 -2.670919,-6.09134 -2.318184,-9.29693 0.551408,-5.0111 3.463201,-9.14027 7.961046,-11.28944 2.22511,-1.0632 3.24659,-1.27885 6.057834,-1.27885 2.811243,0 3.832723,0.21565 6.057834,1.27885 2.464423,1.17756 4.30839,2.8015 5.812919,5.11932 2.147117,3.30775 2.78817,7.52 1.732461,11.38367 -0.341476,1.24974 -1.419877,3.4835 -2.160691,4.4756 -0.794195,1.06358 -2.24851,2.51276 -3.225401,3.21401 -1.14563,0.82239 -3.419767,1.87415 -4.813845,2.22636 -1.325906,0.33499 -4.19259,0.47694 -5.513309,0.27301 z m 4.341291,-5.30118 c 3.786829,-0.9685 6.500711,-4.29952 6.713169,-8.23974 0.133793,-2.48131 -0.717314,-4.74184 -2.479975,-6.5868 -1.816804,-1.90163 -3.808397,-2.77004 -6.396388,-2.78909 -2.604706,-0.0192 -4.421863,0.73584 -6.345027,2.63631 -0.947124,0.93594 -1.280703,1.38026 -1.738252,2.31532 -0.736173,1.50446 -1.015054,2.83229 -0.929215,4.42426 0.305531,5.66635 5.696515,9.64108 11.175688,8.23974 z m 61.013173,5.30001 c -5.70749,-0.89776 -10.28518,-5.09236 -11.67508,-10.69808 -0.3553,-1.43298 -0.42671,-4.6138 -0.13409,-5.97268 1.21972,-5.66422 5.49629,-9.97568 11.03276,-11.12275 1.88955,-0.39149 4.87114,-0.29103 6.61851,0.22299 4.83865,1.42339 8.39496,4.98034 9.80894,9.81071 0.44426,1.5177 0.60367,4.36115 0.33757,6.02196 -0.91651,5.72056 -5.27429,10.31408 -10.9633,11.55641 -1.16319,0.25401 -3.92906,0.35386 -5.02531,0.18144 z m 4.93473,-5.47526 c 1.3903,-0.49266 2.36756,-1.10876 3.41388,-2.1523 1.74802,-1.74336 2.62688,-3.81917 2.64716,-6.25252 0.0185,-2.22087 -0.58506,-3.99935 -1.91622,-5.64614 -1.83543,-2.27065 -4.23219,-3.41133 -7.11719,-3.38727 -2.43334,0.0203 -4.50916,0.89914 -6.25251,2.64716 -1.69353,1.69806 -2.46473,3.4752 -2.56571,5.91238 -0.0749,1.8085 0.1243,2.74161 0.94411,4.42168 0.79326,1.62565 2.30067,3.13305 3.92631,3.92629 1.71204,0.83539 2.37849,0.97969 4.28813,0.9284 1.3372,-0.0359 1.81472,-0.10806 2.63204,-0.39768 z M 50.00355,102.37316 c -1.006923,-0.16914 -2.38226,-0.71524 -3.247231,-1.28938 -0.967028,-0.64187 -2.225643,-2.022637 -2.763417,-3.031607 -0.524965,-0.98493 0.02841,0.96529 -12.49231,-44.025753 l -10.33265,-37.12859 -6.602358,-0.006 C 9.4729217,16.88683 7.7142357,16.84153 6.8743217,16.69193 3.7359297,16.13284 1.0607481,13.65 0.27142917,10.5638 -0.41869513,7.8654405 0.22153217,5.0738805 2.0284776,2.9026205 c 0.6861916,-0.82455 2.083019,-1.855 3.0759941,-2.26920001 1.415067,-0.59026 1.669162,-0.60236 13.1366523,-0.62553 10.758873,-0.0217 10.974677,-0.017 11.843405,0.26122 2.358647,0.75532001 4.52111,2.76958001 5.354041,4.98709001 0.112491,0.29949 1.113232,3.83679 2.223866,7.8606695 l 2.019336,7.31613 53.567588,0.0349 c 52.37902,0.0342 53.57918,0.0407 54.09022,0.29445 0.68146,0.33836 1.20337,1.13655 1.27895,1.95597 0.0471,0.51042 -1.22223,6.05566 -6.1456,26.84852 -3.41271,14.41288 -6.32593,26.46353 -6.47381,26.77922 -0.16543,0.35313 -0.4892,0.71978 -0.84148,0.95292 l -0.57259,0.37893 -39.453936,0.035 c -21.699667,0.0192 -39.453938,0.0599 -39.453938,0.0905 0,0.38992 1.608469,5.74244 1.852927,6.16602 0.349549,0.60567 0.941184,1.12627 1.619019,1.424653 0.333374,0.14675 7.736158,0.19192 40.566462,0.24757 l 40.158676,0.0681 0.91774,0.35705 c 2.83722,1.10383 4.90373,3.43335 5.47982,6.17725 0.92259,4.39427 -1.50415,8.475707 -5.9211,9.958477 -0.7214,0.24218 -2.37031,0.25204 -45.195526,0.27018 -24.663166,0.0105 -44.760534,-0.0339 -45.151644,-0.0996 z m 89.19437,-5.221417 c 1.67222,-0.69869 2.47455,-2.41984 1.94772,-4.17823 -0.21642,-0.72238 -0.93894,-1.52685 -1.71418,-1.90863 l -0.64625,-0.31827 -40.158676,-0.0693 c -33.046204,-0.0571 -40.255111,-0.1016 -40.703195,-0.25158 -2.377817,-0.79589 -4.515975,-2.7735 -5.407388,-5.00136 C 52.331149,84.96251 49.118121,73.462 36.260724,27.24148 35.771277,25.48198 34.982921,22.66407 34.508821,20.97945 34.034722,19.29482 33.023722,15.64991 32.262155,12.87965 31.500587,10.10938 30.78243,7.5671305 30.666252,7.2302005 c -0.270779,-0.78526 -1.280847,-1.7867 -2.027832,-2.0105 -0.420756,-0.12606 -3.020476,-0.16759 -10.490481,-0.16759 -11.0957833,0 -10.8679203,-0.0177 -11.9162743,0.92657 -1.8453243,1.66214 -1.236438,4.7196395 1.106692,5.5571995 0.37526,0.13414 2.321963,0.17678 8.3843413,0.18367 7.40983,0.008 7.930078,0.0246 8.455932,0.26342 1.052037,0.47775 1.13895,0.68916 2.921028,7.10545 0.902328,3.24879 2.008931,7.22396 2.459119,8.83371 0.450187,1.60975 4.671988,16.77135 9.381779,33.69245 4.70979,16.92109 8.763584,31.469643 9.00843,32.330113 0.524185,1.84214 0.940598,2.47346 1.994684,3.02412 l 0.727745,0.38018 h 44.027239 c 38.135976,0 44.090396,-0.0264 44.499266,-0.19723 z M 68.197423,72.40295 c -0.0054,-0.24111 -2.813443,-11.40486 -2.887251,-11.47867 -0.03348,-0.0335 -3.273938,-0.045 -7.201019,-0.0256 l -7.14015,0.0352 1.517967,5.46105 c 0.834881,3.00357 1.558461,5.62239 1.607958,5.8196 l 0.08999,0.35856 h 7.008158 c 5.517807,0 7.007347,-0.0362 7.004344,-0.17016 z m 21.240266,-5.68347 v -5.85364 h -9.407611 c -7.468172,0 -9.394916,0.0351 -9.346038,0.17016 0.03387,0.0936 0.698205,2.72773 1.476313,5.85364 l 1.414741,5.68347 h 7.931298 7.931297 z m 22.314181,0.17016 c 0.77811,-3.12591 1.44245,-5.76005 1.47631,-5.85364 0.0489,-0.13508 -1.87786,-0.17016 -9.34603,-0.17016 h -9.40761 v 5.85364 5.85363 h 7.93129 7.9313 z m 20.02259,5.58985 c 0,-0.0945 2.54697,-10.93351 2.67301,-11.37542 0.0642,-0.22495 -0.37632,-0.23823 -7.89964,-0.23823 h -7.9676 l -0.13481,0.51049 c -0.4466,1.69114 -2.73443,10.94306 -2.73443,11.05796 0,0.0928 2.66405,0.13882 8.03173,0.13882 4.41746,0 8.03174,-0.0421 8.03174,-0.0936 z M 63.981173,55.55439 c 0,-0.11413 -2.691725,-10.98445 -3.142782,-12.69189 l -0.134859,-0.51049 h -7.413897 c -5.470631,0 -7.413898,0.0408 -7.413898,0.15561 0,0.1772 3.538562,12.92656 3.631202,13.08314 0.09625,0.16268 14.474234,0.12656 14.474234,-0.0364 z m 25.423778,-6.49792 -0.03533,-6.6364 -11.503078,-0.0352 c -6.326692,-0.0193 -11.572985,-0.008 -11.658428,0.0241 -0.104777,0.0399 0.382337,2.21182 1.496313,6.67154 l 1.651662,6.61232 h 10.042095 10.042094 z m 26.802839,0.0241 c 1.11398,-4.45972 1.60109,-6.6316 1.49632,-6.67154 -0.0855,-0.0326 -5.33174,-0.0434 -11.65843,-0.0241 l -11.503075,0.0352 -0.03533,6.6364 -0.03533,6.63639 h 10.042095 10.04209 z m 19.63863,6.10182 c 0.20975,-0.79512 3.00685,-12.65268 3.00685,-12.7467 0,-0.046 -3.52003,-0.0837 -7.82229,-0.0837 h -7.82229 l -0.13486,0.51049 c -0.45105,1.70744 -3.14278,12.57776 -3.14278,12.69189 0,0.0923 2.63207,0.13847 7.89036,0.13847 h 7.89035 z m -77.846178,-23.68681 -1.455178,-5.8196 -7.713116,-0.0352 c -6.15042,-0.028 -7.701003,-4e-4 -7.653334,0.13614 0.03288,0.0942 0.678001,2.40723 1.433599,5.14007 0.7556,2.73283 1.466425,5.29039 1.579609,5.68347 l 0.205793,0.71469 h 7.528903 7.528902 z m 31.437447,-0.034 V 25.60794 H 75.636778 61.835867 l 1.417002,5.68348 c 0.779351,3.12591 1.443899,5.76004 1.476773,5.85363 0.04722,0.13444 2.647233,0.17017 12.383911,0.17017 h 12.324136 z m 31.182841,-0.034 1.45519,-5.81961 H 108.27513 94.47454 v 5.76289 c 0,3.16958 0.04116,5.80404 0.09147,5.85435 0.05031,0.0503 5.60574,0.0758 12.3454,0.0567 l 12.25394,-0.0348 z m 19.51182,5.64944 c 0.13714,-0.45229 2.66873,-11.20995 2.66873,-11.34044 0,-0.0826 -2.84629,-0.11789 -7.71696,-0.0957 l -7.71696,0.0352 -1.39986,5.58137 c -0.76992,3.06976 -1.40164,5.68858 -1.40382,5.81961 -0.004,0.22414 0.45433,0.23823 7.74633,0.23823 7.26296,0 7.75484,-0.015 7.82254,-0.23823 z"
       id="path429" /></g></svg>
